# xmcd
#
# Track frame offsets:
#	150
#	10717
#	23885
#	39800
#	54532
#	69307
#	82110
#	91892
#	101197
#	116072
#	127490
#	139807
#	152397
#	172922
#
# Disc length: 2430 seconds
#
# Revision: 5
# Processed by: cddbd v1.4PL0 Copyright (c) Steve Scherf et al.
# Submitted via: EasyCDDAExtractor 5.0.6
#
DISCID=b2097c0e
DTITLE=Del McCoury - A Deeper Shade Of Blue
DYEAR=1993
DGENRE=Bluegrass
TTITLE0=Cheek To Cheek With The Blues
TTITLE1=How Long Blues
TTITLE2=True Love Never Dies
TTITLE3=What Made Milwaukee Famous
TTITLE4=Quicksburg Rondezvous
TTITLE5=More Often Than Once In A While
TTITLE6=Man With The Blues
TTITLE7=If You've Got The Money Honey
TTITLE8=The Bluest Man In Town
TTITLE9=A Deeper Shade Of Blue
TTITLE10=I Know His Voice
TTITLE11=I'm Lonely For My Only
TTITLE12=Cold Cheater's Heart
TTITLE13=Lonely Side Of Love
EXTD=
EXTT0=
EXTT1=
EXTT2=
EXTT3=
EXTT4=
EXTT5=
EXTT6=
EXTT7=
EXTT8=
EXTT9=
EXTT10=
EXTT11=
EXTT12=
EXTT13=
PLAYORDER=
